<?xml version="1.0" standalone="no"?><!-- Generator: Gravit.io --><svg xmlns="http://www.w3.org/2000/svg" xmlns:xlink="http://www.w3.org/1999/xlink" style="isolation:isolate" viewBox="0 0 512 512" width="512" height="512"><defs><clipPath id="_clipPath_u3GZhJFJ7ZCDlUajekdhZJEn6POvWdrF"><rect width="512" height="512"/></clipPath></defs><g clip-path="url(#_clipPath_u3GZhJFJ7ZCDlUajekdhZJEn6POvWdrF)"><g id="Group"><path d=" M 161.818 193.348 C 156.32 191.515 151.203 188.766 145.591 187.354 C 132.495 184.032 118.75 188.766 109.969 198.999 C 114.168 195.715 120.315 196.288 125.241 198.464 C 130.128 200.602 134.366 204.077 139.215 206.329 C 146.202 209.575 154.449 210.109 161.818 207.78 C 169.186 205.451 175.601 200.259 179.457 193.577 C 174.074 195.83 167.239 195.181 161.818 193.348 Z  M 284.518 191.527 C 282.762 197.559 276.882 201.759 270.697 202.981 C 264.512 204.203 258.097 202.828 252.218 200.69 C 246.3 198.59 240.649 195.688 234.693 193.703 C 224.04 190.152 212.243 189.579 201.743 193.512 C 191.243 197.445 183.569 205.806 180.858 216.688 C 186.394 211.533 194.718 209.242 201.972 211.457 C 209.265 213.633 215.068 220.429 215.526 227.989 C 216.022 235.587 210.792 243.261 203.423 245.132 C 197.199 246.697 190.747 244.368 184.791 242.001 C 175.284 238.298 165.815 234.556 156.308 230.853 C 146.496 226.996 136.34 223.102 125.802 223.789 C 115.302 224.438 104.65 231.654 102.588 241.963 C 105.337 237.61 111.408 235.74 116.18 237.687 C 120.915 239.672 123.855 245.285 122.709 250.325 C 121.831 254.104 119.044 257.197 115.684 259.182 C 112.324 261.091 108.506 262.008 104.65 262.581 C 95.792 263.879 86.705 263.65 78 261.741 C 83.842 269.949 93.501 274.951 103.466 276.364 C 113.431 277.776 123.626 275.829 133.018 272.164 C 138.783 269.911 144.32 266.971 150.276 265.139 C 156.194 263.268 162.723 262.542 168.526 264.757 C 174.368 266.933 179.14 272.546 178.911 278.731 C 178.758 283.007 176.086 287.131 172.268 289.04 C 168.45 290.949 163.181 291.483 159.63 289.078 C 163.753 297.096 171.008 303.51 179.446 306.603 C 187.96 309.695 197.581 309.466 205.905 305.954 C 213.083 302.975 219.077 297.745 225.682 293.583 C 232.287 289.421 240.153 286.291 247.75 288.085 C 251.263 288.925 254.661 290.949 256.494 294.079 C 258.365 297.172 258.441 301.448 256.188 304.312 C 254.05 307.061 250.27 308.015 246.796 308.13 C 243.283 308.206 239.809 307.557 236.296 307.786 C 230.607 308.206 225.186 311.184 221.75 315.766 C 218.351 320.309 217.664 325.655 218.848 331.191 C 224.766 321.76 238.434 320.997 249.01 324.471 C 259.548 327.984 269.055 334.589 280.013 336.536 C 294.522 339.132 309.45 332.833 319.988 322.371 C 289.024 318.973 264.97 292.781 264.97 260.939 C 264.97 228.638 289.711 202.141 321.286 199.354 C 310.443 185.99 294.827 176.331 277.798 174.88 C 283.755 176.713 286.275 185.494 284.518 191.527 L 284.518 191.527 Z " fill="rgb(255,125,0)"/><path d=" M 300.625 295.525 C 285.808 280.708 285.808 256.649 300.625 241.832 C 315.442 227.015 339.501 227.015 354.318 241.832 C 369.134 256.649 369.134 280.708 354.318 295.525 C 339.501 310.342 315.442 310.342 300.625 295.525 Z " fill="none"/></g><path d=" M 294 261.132 C 294 228.496 320.496 202 353.132 202 C 385.768 202 412.264 228.496 412.264 261.132 C 412.264 293.768 385.768 320.264 353.132 320.264 C 320.496 320.264 294 293.768 294 261.132 Z " fill="none"/><g style="isolation: isolate;"><path d=" M 294 261.132 C 294 228.496 320.496 202 353.132 202 C 385.768 202 412.264 228.496 412.264 261.132 C 412.264 293.768 385.768 320.264 353.132 320.264 C 320.496 320.264 294 293.768 294 261.132 Z " fill="none" vector-effect="non-scaling-stroke" stroke-width="32" stroke="rgb(0,0,0)" stroke-linejoin="miter" stroke-linecap="square" stroke-miterlimit="3"/><path d=" M 294 261.132 C 294 228.496 320.496 202 353.132 202 C 385.768 202 412.264 228.496 412.264 261.132 C 412.264 293.768 385.768 320.264 353.132 320.264 C 320.496 320.264 294 293.768 294 261.132 Z " fill="none" vector-effect="non-scaling-stroke" stroke-width="4" stroke="rgb(255,0,0)" stroke-linejoin="miter" stroke-linecap="square" stroke-miterlimit="3"/></g></g></svg>