<?xml version="1.0" standalone="no"?><!-- Generator: Gravit.io --><svg xmlns="http://www.w3.org/2000/svg" xmlns:xlink="http://www.w3.org/1999/xlink" style="isolation:isolate" viewBox="0 0 512 512" width="512" height="512"><defs><clipPath id="_clipPath_ldkpQ1aOADUo4avZfIpRT3KfxAxkwEKz"><rect width="512" height="512"/></clipPath></defs><g clip-path="url(#_clipPath_ldkpQ1aOADUo4avZfIpRT3KfxAxkwEKz)"><g id="Group"><path d=" M 256 109.188 C 165.078 109.188 91 182.463 91 272.594 C 91 362.638 164.99 436 256 436 C 346.922 436 421 362.725 421 272.594 C 421 182.463 347.01 109.188 256 109.188 L 256 109.188 Z  M 256 418.358 C 174.779 418.358 108.726 352.943 108.726 272.507 C 108.726 192.07 174.779 126.655 256 126.655 C 279.388 126.655 301.519 132.079 321.177 141.724 C 369.785 165.574 403.274 215.232 403.274 272.507 C 403.274 352.943 337.221 418.358 256 418.358 Z  M 256 137.572 C 180.864 137.572 119.749 198.096 119.749 272.507 C 119.749 346.917 180.864 407.441 256 407.441 C 331.136 407.441 392.251 346.917 392.251 272.507 C 392.251 198.096 331.136 137.572 256 137.572 Z  M 344.541 336 L 167.547 336 C 153.261 336 141.708 324.559 141.708 310.41 L 141.708 234.603 C 141.708 220.454 153.261 209.013 167.547 209.013 L 344.541 209.013 C 358.827 209.013 370.38 220.454 370.38 234.603 L 370.38 310.41 C 370.38 324.559 358.827 336 344.541 336 Z " fill="rgb(19,19,19)"/><path d=" M 355.564 127.179 C 363.766 118.707 377.347 118.445 385.901 126.568 L 402.04 141.939 C 410.594 150.061 410.858 163.511 402.657 171.983 L 400.893 173.817 C 388.459 155.913 372.673 140.454 354.506 128.227 L 355.564 127.179 L 355.564 127.179 Z  M 216.668 101.939 C 216.668 87.613 228.395 76 242.86 76 L 269.14 76 C 283.605 76 295.332 87.613 295.332 101.939 L 295.332 102.725 C 282.432 99.778 269.238 98.284 256 98.271 C 242.507 98.271 229.279 99.843 216.668 102.725 L 216.668 101.939 L 216.668 101.939 Z  M 107.315 156.786 C 107.403 151.109 109.784 145.782 113.929 141.939 L 130.067 126.568 C 134.212 122.638 139.68 120.541 145.324 120.629 C 150.792 120.716 155.906 122.9 159.875 126.655 C 141.532 138.533 125.57 153.729 112.871 171.371 C 109.146 167.427 107.148 162.184 107.315 156.786 L 107.315 156.786 Z  M 286.249 259.406 L 280.693 259.406 C 280.34 259.406 280.075 259.668 280.075 260.017 L 280.075 305.083 C 280.075 305.432 280.34 305.694 280.693 305.694 L 286.249 305.694 C 286.601 305.694 286.866 305.432 286.866 305.083 L 286.866 260.017 C 286.866 259.668 286.601 259.406 286.249 259.406 Z  M 311.999 273.642 L 314.292 273.642 L 314.292 305.52 L 311.999 305.52 L 311.999 273.642 Z  M 253.09 259.406 L 247.534 259.406 C 247.181 259.406 246.917 259.668 246.917 260.017 L 246.917 305.083 C 246.917 305.432 247.181 305.694 247.534 305.694 L 253.09 305.694 C 253.443 305.694 253.707 305.432 253.707 305.083 L 253.707 260.017 C 253.707 259.668 253.443 259.406 253.09 259.406 L 253.09 259.406 Z  M 206.086 259.406 L 200.53 259.406 C 200.177 259.406 199.912 259.668 199.912 260.017 L 199.912 305.083 C 199.912 305.432 200.177 305.694 200.53 305.694 L 206.086 305.694 C 206.438 305.694 206.703 305.432 206.703 305.083 L 206.703 260.017 C 206.615 259.668 206.35 259.406 206.086 259.406 Z  M 344.541 219.93 L 167.547 219.93 C 159.346 219.93 152.732 226.48 152.732 234.603 L 152.732 310.41 C 152.732 318.533 159.346 325.083 167.547 325.083 L 344.541 325.083 C 352.742 325.083 359.356 318.533 359.356 310.41 L 359.356 234.603 C 359.356 226.568 352.742 219.93 344.541 219.93 L 344.541 219.93 Z  M 161.991 232.157 C 161.991 229.1 164.461 226.655 167.547 226.655 L 344.541 226.655 C 347.627 226.655 350.097 229.1 350.097 232.157 C 350.097 235.214 347.627 237.659 344.541 237.659 L 167.547 237.659 C 164.461 237.572 161.991 235.214 161.991 232.157 L 161.991 232.157 Z  M 217.638 304.996 C 217.638 311.371 212.435 316.524 205.997 316.524 L 200.441 316.524 C 194.004 316.524 188.801 311.371 188.801 304.996 L 188.801 259.93 C 188.801 253.555 194.004 248.402 200.441 248.402 L 205.997 248.402 C 212.435 248.402 217.638 253.555 217.638 259.93 L 217.638 304.996 Z  M 227.427 295.389 C 225.84 295.389 224.605 294.079 224.605 292.594 C 224.605 291.022 225.928 289.799 227.427 289.799 C 229.014 289.799 230.249 291.109 230.249 292.594 C 230.249 294.079 229.014 295.389 227.427 295.389 Z  M 227.427 275.214 C 225.84 275.214 224.605 273.904 224.605 272.419 C 224.605 270.847 225.928 269.624 227.427 269.624 C 229.014 269.624 230.249 270.934 230.249 272.419 C 230.249 273.991 229.014 275.214 227.427 275.214 Z  M 264.731 304.996 C 264.731 311.371 259.528 316.524 253.09 316.524 L 247.534 316.524 C 241.096 316.524 235.893 311.371 235.893 304.996 L 235.893 259.93 C 235.893 253.555 241.096 248.402 247.534 248.402 L 253.09 248.402 C 259.528 248.402 264.731 253.555 264.731 259.93 L 264.731 304.996 L 264.731 304.996 Z  M 297.889 304.996 C 297.889 311.371 292.686 316.524 286.249 316.524 L 280.693 316.524 C 274.255 316.524 269.052 311.371 269.052 304.996 L 269.052 259.93 C 269.052 253.555 274.255 248.402 280.693 248.402 L 286.249 248.402 C 292.686 248.402 297.889 253.555 297.889 259.93 L 297.889 304.996 Z  M 325.316 306.48 C 325.316 311.983 320.818 316.437 315.262 316.437 L 311.029 316.437 C 305.474 316.437 300.976 311.983 300.976 306.48 L 300.976 272.681 C 300.976 267.179 305.474 262.725 311.029 262.725 L 315.174 262.725 C 320.73 262.725 325.228 267.179 325.228 272.681 L 325.228 306.48 L 325.316 306.48 Z  M 350.979 306.48 C 350.979 311.983 346.481 316.437 340.925 316.437 L 336.78 316.437 C 331.224 316.437 326.727 311.983 326.727 306.48 L 326.727 272.681 C 326.727 267.179 331.224 262.725 336.78 262.725 L 340.925 262.725 C 346.481 262.725 350.979 267.179 350.979 272.681 L 350.979 306.48 Z  M 337.75 273.642 L 340.043 273.642 L 340.043 305.52 L 337.75 305.52 L 337.75 273.642 Z  M 253.09 259.406 L 247.534 259.406 C 247.181 259.406 246.917 259.668 246.917 260.017 L 246.917 305.083 C 246.917 305.432 247.181 305.694 247.534 305.694 L 253.09 305.694 C 253.443 305.694 253.707 305.432 253.707 305.083 L 253.707 260.017 C 253.707 259.668 253.443 259.406 253.09 259.406 Z  M 206.086 259.406 L 200.53 259.406 C 200.177 259.406 199.912 259.668 199.912 260.017 L 199.912 305.083 C 199.912 305.432 200.177 305.694 200.53 305.694 L 206.086 305.694 C 206.438 305.694 206.703 305.432 206.703 305.083 L 206.703 260.017 C 206.615 259.668 206.35 259.406 206.086 259.406 Z " fill="rgb(255,50,0)"/><path d=" M 256 137.572 L 255.118 137.572 L 255.118 208.926 L 344.541 208.926 C 358.827 208.926 370.38 220.367 370.38 234.515 L 370.38 310.41 C 370.38 324.559 358.827 336 344.541 336 L 255.118 336 L 255.118 407.354 L 256 407.354 C 331.136 407.354 392.251 346.83 392.251 272.419 C 392.251 198.009 331.136 137.572 256 137.572 Z  M 256 109.188 L 255.118 109.188 L 255.118 126.742 L 256 126.742 C 337.221 126.742 403.274 192.157 403.274 272.594 C 403.274 353.031 337.221 418.445 256 418.445 L 255.118 418.445 L 255.118 436 L 256 436 C 346.922 436 421 362.725 421 272.594 C 421 182.463 347.01 109.188 256 109.188 L 256 109.188 Z " fill="rgb(19,19,19)"/><path d=" M 286.249 259.406 L 280.693 259.406 C 280.34 259.406 280.075 259.668 280.075 260.017 L 280.075 305.083 C 280.075 305.432 280.34 305.694 280.693 305.694 L 286.249 305.694 C 286.601 305.694 286.866 305.432 286.866 305.083 L 286.866 260.017 C 286.866 259.668 286.601 259.406 286.249 259.406 Z  M 311.999 273.642 L 314.292 273.642 L 314.292 305.52 L 311.999 305.52 L 311.999 273.642 Z  M 337.75 273.642 L 340.043 273.642 L 340.043 305.52 L 337.75 305.52 L 337.75 273.642 Z  M 344.541 219.93 L 255.118 219.93 L 255.118 226.655 L 344.541 226.655 C 347.627 226.655 350.097 229.1 350.097 232.157 C 350.097 235.214 347.627 237.659 344.541 237.659 L 255.118 237.659 L 255.118 248.751 C 260.586 249.712 264.731 254.428 264.731 260.017 L 264.731 305.083 C 264.731 310.76 260.586 315.389 255.118 316.349 L 255.118 325.17 L 344.541 325.17 C 352.742 325.17 359.356 318.62 359.356 310.498 L 359.356 234.69 C 359.356 226.568 352.742 219.93 344.541 219.93 L 344.541 219.93 Z  M 297.889 304.996 C 297.889 311.371 292.686 316.524 286.249 316.524 L 280.693 316.524 C 274.255 316.524 269.052 311.371 269.052 304.996 L 269.052 259.93 C 269.052 253.555 274.255 248.402 280.693 248.402 L 286.249 248.402 C 292.686 248.402 297.889 253.555 297.889 259.93 L 297.889 304.996 Z  M 325.316 306.48 C 325.316 311.983 320.818 316.437 315.262 316.437 L 311.029 316.437 C 305.474 316.437 300.976 311.983 300.976 306.48 L 300.976 272.681 C 300.976 267.179 305.474 262.725 311.029 262.725 L 315.174 262.725 C 320.73 262.725 325.228 267.179 325.228 272.681 L 325.228 306.48 L 325.316 306.48 Z  M 350.979 306.48 C 350.979 311.983 346.481 316.437 340.925 316.437 L 336.78 316.437 C 331.224 316.437 326.727 311.983 326.727 306.48 L 326.727 272.681 C 326.727 267.179 331.224 262.725 336.78 262.725 L 340.925 262.725 C 346.481 262.725 350.979 267.179 350.979 272.681 L 350.979 306.48 Z  M 269.228 76 L 255.118 76 L 255.118 98.271 L 256 98.271 C 269.493 98.271 282.721 99.843 295.332 102.725 L 295.332 101.939 C 295.42 87.616 283.603 76 269.228 76 L 269.228 76 Z " fill="rgb(255,50,0)"/></g></g></svg>