<?xml version="1.0" encoding="UTF-8" standalone="no"?>
<!-- Generator: Gravit.io -->
<svg xmlns="http://www.w3.org/2000/svg" xmlns:xlink="http://www.w3.org/1999/xlink" style="isolation:isolate" viewBox="0 0 512 512" width="512" height="512"><defs><clipPath id="_clipPath_mcgL2xRJlOgOE0604wpSnFwGzx71bzP3"><rect width="512" height="512"/></clipPath></defs><g clip-path="url(#_clipPath_mcgL2xRJlOgOE0604wpSnFwGzx71bzP3)"><path d=" M 332.8 128 L 179.2 128 C 151.04 128 128 151.04 128 179.2 L 128 332.8 C 128 360.96 151.04 384 179.2 384 L 332.8 384 C 360.96 384 384 360.96 384 332.8 L 384 179.2 C 384 151.04 360.96 128 332.8 128 Z  M 320 345.6 L 192 345.6 L 192 320 L 320 320 L 320 345.6 Z  M 320 243.2 L 268.8 243.2 L 268.8 294.4 L 243.2 294.4 L 243.2 243.2 L 192 243.2 L 192 217.6 L 243.2 217.6 L 243.2 166.4 L 268.8 166.4 L 268.8 217.6 L 320 217.6 L 320 243.2 Z " fill="rgb(0,0,0)"/></g></svg>